<svg preserveAspectRatio="none" overflow="visible" style="display: block;" width="114.24" height="124.624" viewBox="0 0 114.24 124.624" fill="none" xmlns="http://www.w3.org/2000/svg">
<g id="Group 132">
<path id="Vector" fill-rule="evenodd" clip-rule="evenodd" d="M94.27 62.3588C93.97 61.2958 93.63 60.2508 93.25 59.2268L70.0601 54.8848L58.77 34.1848C57.68 34.1378 56.5702 34.1378 55.4702 34.1838L44.1802 54.8848L20.9902 59.2268C20.6102 60.2508 20.27 61.2958 19.98 62.3588L36.1802 79.5008L33.1504 102.885C34.0104 103.569 34.9003 104.217 35.8203 104.827L57.1201 94.7138L78.4302 104.827C79.3502 104.217 80.2401 103.569 81.1001 102.884L78.0601 79.5008L94.27 62.3588ZM57.1201 52.8458L63.3101 64.1848L76 66.5628L67.1304 75.9478L68.79 88.7568L57.1201 83.2178L45.4502 88.7568L47.1201 75.9478L38.2402 66.5628L50.9404 64.1848L57.1201 52.8458Z" fill="black"/>
<path id="Vector_2" fill-rule="evenodd" clip-rule="evenodd" d="M36.3501 0H25.9702V10.721C20.0302 11.141 15.8704 12.086 12.4004 14.211C8.91039 16.352 5.97008 19.289 3.83008 22.783C7.82013e-05 29.026 0 37.525 0 54.523V80.486C0 97.484 7.82013e-05 105.983 3.83008 112.226C5.97008 115.72 8.91039 118.657 12.4004 120.798C18.6404 124.624 27.1401 124.624 44.1401 124.624H70.1001C87.1001 124.624 95.6003 124.624 101.84 120.798C105.34 118.657 108.27 115.72 110.42 112.226C114.24 105.983 114.24 97.484 114.24 80.486V54.523C114.24 37.525 114.24 29.026 110.42 22.783C108.27 19.289 105.34 16.352 101.84 14.211C98.3703 12.086 94.2103 11.141 88.2803 10.721V0H77.8901V10.403C75.5101 10.385 72.9201 10.385 70.1001 10.385H44.1401C41.3201 10.385 38.7301 10.385 36.3501 10.403V0ZM77.8901 31.156V20.789C75.5801 20.772 73.0001 20.771 70.1001 20.771H44.1401C41.2401 20.771 38.6601 20.772 36.3501 20.789V31.156H25.9702V21.136C25.7102 21.157 25.4602 21.179 25.2202 21.202C20.9502 21.608 19.0401 22.321 17.8301 23.066C15.7301 24.351 13.9702 26.113 12.6802 28.209C11.9402 29.425 11.2303 31.333 10.8203 35.603C10.4003 40.027 10.3901 45.823 10.3901 54.523V80.486C10.3901 89.186 10.4003 94.982 10.8203 99.406C11.2303 103.676 11.9402 105.584 12.6802 106.8C13.9702 108.896 15.7301 110.659 17.8301 111.943C19.0401 112.688 20.9502 113.401 25.2202 113.807C29.6402 114.228 35.4401 114.239 44.1401 114.239H70.1001C78.8001 114.239 84.6 114.228 89.02 113.807C93.29 113.401 95.2004 112.688 96.4204 111.943C98.5104 110.659 100.28 108.896 101.56 106.8C102.31 105.584 103.02 103.676 103.42 99.406C103.84 94.982 103.86 89.186 103.86 80.486V54.523C103.86 45.823 103.84 40.027 103.42 35.603C103.02 31.333 102.31 29.425 101.56 28.209C100.28 26.113 98.5104 24.351 96.4204 23.066C95.2004 22.321 93.29 21.608 89.02 21.202C88.78 21.179 88.5303 21.157 88.2803 21.136V31.156H77.8901Z" fill="black"/>
</g>
</svg>
