<svg preserveAspectRatio="none" overflow="visible" style="display: block;" width="148.126" height="123.438" viewBox="0 0 148.126 123.438" fill="none" xmlns="http://www.w3.org/2000/svg">
<g id="Group">
<path id="Vector" d="M115.073 50.7609C110.167 55.4962 102.141 55.4962 97.2445 50.7609L90.3795 57.8648C99.1084 66.2951 113.2 66.2951 121.929 57.8648L115.073 50.7609Z" fill="black"/>
<path id="Vector_2" d="M42.9316 90.2607C47.838 94.9969 55.8538 94.9969 60.7602 90.2607L67.6159 97.3646C58.887 105.796 44.8046 105.796 36.0661 97.3646L42.9316 90.2607Z" fill="black"/>
<path id="Vector_3" fill-rule="evenodd" clip-rule="evenodd" d="M106.154 83.9373C129.336 83.9373 148.126 65.1474 148.126 41.9691C148.126 18.79 129.336 0 106.154 0C83.1625 0 64.4877 18.4895 64.1929 41.411C58.7635 39.4998 54.2469 39.4997 51.8508 39.4997H51.841C34.8206 39.4997 20.1678 49.6293 13.5879 64.1879H0V74.0626H10.5263C10.0985 76.4664 9.8703 78.9415 9.8703 81.4689C9.8703 104.648 28.659 123.438 51.841 123.438C74.8138 123.438 93.4701 104.983 93.8029 82.0917C97.711 83.2917 101.856 83.9373 106.154 83.9373ZM106.154 74.0626C123.878 74.0626 138.246 59.6942 138.246 41.9691C138.246 41.0611 138.208 40.1616 138.132 39.2725C132.912 38.798 127.939 37.5895 123.441 35.7277V44.4376H113.562V29.9892C110.709 27.7262 108.256 25.0961 106.297 22.137C104.31 25.3538 101.752 28.1912 98.7471 30.5921V44.4376H88.8773V36.2887C84.3702 38.0849 79.3972 39.1679 74.158 39.4351C74.0914 40.2709 74.0628 41.1162 74.0628 41.9691C74.0628 59.6942 88.4303 74.0626 106.154 74.0626ZM135.527 29.0099C122.871 26.8999 114.227 19.5782 111.793 10.3691C122.443 12.2566 131.276 19.3938 135.527 29.0099ZM100.582 10.3568C89.7902 12.2452 80.8521 19.5259 76.6493 29.3198C89.3623 27.7452 98.2243 20.24 100.582 10.3568ZM24.7893 64.1879H70.5449C68.4054 60.7629 66.7413 57.0061 65.6573 53.0134C59.8 49.3802 54.6651 49.3754 51.841 49.3754C40.4782 49.3754 30.4944 55.2793 24.7893 64.1879ZM20.6056 74.0626C20.0446 76.4398 19.7494 78.9196 19.7494 81.4689C19.7494 99.1939 34.1169 113.562 51.841 113.562C69.5651 113.562 83.9326 99.1939 83.9326 81.4689C83.9326 80.0959 83.8473 78.7456 83.6856 77.4211C82.0406 76.378 80.4715 75.2236 78.9977 73.9685V74.0626H69.1279V83.9373H59.2483V74.0626H44.4338V83.9373H34.5639V74.0626H20.6056Z" fill="black"/>
</g>
</svg>
